<mxfile host="app.diagrams.net" modified="2023-08-29T02:03:05.853Z" agent="Mozilla/5.0 (Windows NT 10.0; Win64; x64) AppleWebKit/537.36 (KHTML, like Gecko) Chrome/116.0.0.0 Safari/537.36" version="21.6.9" etag="aHE2mVk-s8TSZ5gPhxQH" type="github">
  <diagram name="Page-1" id="oQwe1EJO7PYxA6o-ZM_B">
    <mxGraphModel>
      <root>
        <mxCell id="0" />
        <mxCell id="1" parent="0" />
      </root>
    </mxGraphModel>
  </diagram>
</mxfile>
